<?xml version="1.0" encoding="UTF-8" standalone="no"?>
<svg
   id="Layer_1"
   data-name="Layer 1"
   viewBox="0 0 706.99999 254.86877"
   version="1.1"
   sodipodi:docname="gamestar (copy).svg"
   inkscape:version="1.4 (e7c3feb100, 2024-10-09)"
   xmlns:inkscape="http://www.inkscape.org/namespaces/inkscape"
   xmlns:sodipodi="http://sodipodi.sourceforge.net/DTD/sodipodi-0.dtd"
   xmlns="http://www.w3.org/2000/svg"
   xmlns:svg="http://www.w3.org/2000/svg"
   xmlns:rdf="http://www.w3.org/1999/02/22-rdf-syntax-ns#"
   xmlns:cc="http://creativecommons.org/ns#"
   xmlns:dc="http://purl.org/dc/elements/1.1/">
  <defs
     id="defs33" />
  <sodipodi:namedview
     id="namedview31"
     pagecolor="#ffffff"
     bordercolor="#000000"
     borderopacity="0.25"
     inkscape:showpageshadow="2"
     inkscape:pageopacity="0.0"
     inkscape:pagecheckerboard="0"
     inkscape:deskcolor="#d1d1d1"
     showgrid="false"
     inkscape:zoom="0.38550001"
     inkscape:cx="461.73799"
     inkscape:cy="570.6874"
     inkscape:window-width="1440"
     inkscape:window-height="891"
     inkscape:window-x="0"
     inkscape:window-y="32"
     inkscape:window-maximized="1"
     inkscape:current-layer="g643" />
  <title
     id="title2">game-logo</title>
  <metadata
     id="metadata325">
    <rdf:RDF>
      <cc:Work
         rdf:about="">
        <dc:title>game-logo</dc:title>
      </cc:Work>
    </rdf:RDF>
  </metadata>
  <g
     id="g643"
     inkscape:label="GAME STAR" />
  <g
     id="g650"
     inkscape:label="GAME*">
    <path
       id="path6951-4"
       style="color:#000000;opacity:0.96;fill:#000000;stroke-miterlimit:10"
       d="M 643.16407,0 632.83399,5.9628903 650.66993,36.855471 H 615.00001 V 48.78125 h 35.66992 l -17.83594,30.892579 10.33008,5.96289 17.83398,-30.89063 17.83594,30.89063 10.33008,-5.96289 -17.83594,-30.892579 h 35.67188 V 36.855471 H 671.32813 L 689.16407,5.9628903 678.83399,0 661.00001,30.89063 Z"
       inkscape:label="star" />
    <path
       id="rect623-7-2-25"
       style="color:#000000;fill:#000000"
       d="m 468.00001,37.8688 v 97.50975 10.83984 108.65039 h 112 v -12 h -100 v -96.65039 h 43.58985 V 135.37855 H 480.00001 V 49.8688 h 100 v -12 z"
       inkscape:label="E" />
    <path
       id="path3529-3-5-7"
       style="color:#000000;opacity:0.96;fill:#000000;stroke-width:1.01375;stroke-miterlimit:10;-inkscape-stroke:none"
       d="M 284.00001,37.809103 V 254.80909 h 11.14454 V 97.692554 L 355.814,254.80909 h 10.37006 L 426.85352,97.692554 V 254.80909 h 11.14649 V 37.809103 l -77,199.406847 z"
       sodipodi:nodetypes="cccccccccccc"
       inkscape:label="M" />
    <path
       style="color:#000000;opacity:0.96;fill:#000000;stroke-width:1.00093;stroke-miterlimit:10;-inkscape-stroke:none"
       d="m 198.00001,37.809109 -56,216.990191 h 11.34766 l 44.68554,-170.896921 44.9629,170.906711 h 11.0039 z"
       id="path2240-2"
       sodipodi:nodetypes="ccccccc"
       inkscape:label="A" />
    <path
       id="rect623-7-1-1-7"
       style="color:#000000;fill:#000000"
       d="m 36,37.809103 c -19.840164,0 -36,16.15984 -36,36.000001 V 218.80909 c 0,19.84016 16.159836,36 36,36 h 40.000004 c 19.840154,0 35.999996,-16.15984 35.999996,-36 v -64.99219 -12 H 99.999998 55.999999 v 12 h 43.999999 v 64.99219 c 0,13.39975 -10.60026,24 -23.999994,24 H 36 c -13.399751,0 -24,-10.60025 -24,-24 V 73.809104 c 0,-13.399746 10.600249,-24 24,-24 h 40.000004 c 13.399734,0 23.999994,10.600254 23.999994,24 V 103.3169 H 112 V 73.809104 c 0,-19.84016 -16.159842,-36 -35.999996,-36 z"
       inkscape:label="G" />
  </g>
</svg>
